# xmcd CD database file
#
# Track frame offsets:
#	150
#	26750
#	68037
#	104640
#	146045
#	182680
#
# Disc length: 2876 seconds
#
# Revision: 1
# Processed by: cddbd v1.5.2PL0 Copyright (c) Steve Scherf et al.
# Submitted via: CDex 1.51
#
DISCID=550b3a06
DTITLE=Phil Woods Quartet with Gene Quill - Phil Talks With Quill
DYEAR=1957
DGENRE=Jazz
TTITLE0=Doxie I
TTITLE1=A Night In Tunisia
TTITLE2=Hymn for Kim
TTITLE3=Dear Old Stockholm
TTITLE4=Scrapple from the Apple
TTITLE5=Doxie II
EXTD=YEAR: 1957
EXTT0=
EXTT1=
EXTT2=
EXTT3=
EXTT4=
EXTT5=
PLAYORDER=
